<svg xmlns="http://www.w3.org/2000/svg" xmlns:xlink="http://www.w3.org/1999/xlink" viewBox="0 0 20 20"><defs><style>.cls-1{fill:url(#linear-gradient)}</style><linearGradient id="linear-gradient" x1="10" y1="3.02" x2="10" y2="22.81" gradientTransform="matrix(1 0 0 -1 0 22.97)" gradientUnits="userSpaceOnUse"><stop offset="0" stop-color="#e09b3d"/><stop offset=".3" stop-color="#c74c4d"/><stop offset=".6" stop-color="#c21975"/><stop offset="1" stop-color="#7024c4"/></linearGradient><linearGradient id="linear-gradient-3" x1="15.18" y1="3.02" x2="15.18" y2="22.81" xlink:href="#linear-gradient"/></defs><g id="Слой_2" data-name="Слой 2"><g id="Layer_1" data-name="Layer 1"><path class="cls-1" d="M14 0H6a6 6 0 0 0-6 6v8a6 6 0 0 0 6 6h8a6 6 0 0 0 6-6V6a6 6 0 0 0-6-6zm4 14a4 4 0 0 1-4 4H6a4 4 0 0 1-4-4V6a4 4 0 0 1 4-4h8a4 4 0 0 1 4 4v8z"/><path class="cls-1" d="M10 4.83A5.17 5.17 0 1 0 15.17 10 5.18 5.18 0 0 0 10 4.83zm0 8.33A3.16 3.16 0 1 1 13.16 10 3.15 3.15 0 0 1 10 13.16z"/><circle cx="15.18" cy="4.87" r="1.24" fill="url(#linear-gradient-3)"/></g></g></svg>